<svg xmlns="http://www.w3.org/2000/svg" viewBox="0 0 102.61 216.24"><defs><style>.cls-1{fill:#fff;}</style></defs><g id="Capa_2" data-name="Capa 2"><g id="Capa_1-2" data-name="Capa 1"><path class="cls-1" d="M46.41,98.87c.49-.34.83-.57,1.16-.82L82.75,71.48c1.67-1.26,1.84-1.26,3.39.19L91,76.13c1,.92,1,1.18-.08,2.08C85.09,83,79.32,87.89,73.48,92.66a4.21,4.21,0,0,0-1.67,4.27c1,7.21,1.79,14.45,2.66,21.67q1.47,12.09,2.94,24.19,1.45,11.9,2.88,23.81,1.47,12.09,2.91,24.18c.71,6,1.44,11.95,2.14,17.93.18,1.53.07,1.57-1.49,1.76-2.63.31-5.26.68-7.89,1-1.62.21-1.89,0-2.1-1.64-.64-5-1.24-9.93-1.86-14.9Q70.43,182.49,68.83,170c-1-7.68-1.93-15.36-2.9-23l-3.18-25q-1.06-8.33-2.11-16.66c0-.4-.13-.79-.24-1.44-.52.34-.87.53-1.17.77-3.59,3-7.16,6-10.79,9a3.07,3.07,0,0,0-1.24,2.83q1.11,18.41,2.18,36.8c.5,8.91.91,17.82,1.39,26.73s1,17.74,1.48,26.6c.11,2.06,0,2.19-2.13,2.31l-14,.82-15.5,1c-.46,0-.93,0-1.39.06-.94.06-1.43-.29-1.35-1.31.06-.67,0-1.35,0-2q0-34.38,0-68.75,0-24-.05-48c0-6.82-.08-13.64-.11-20.46,0-2.11.43-2.56,2.47-2.61l22.35-.59c1.84,0,2,.16,2.12,2q.78,14.31,1.57,28.62C46.26,97.89,46.34,98.3,46.41,98.87Z"/><path class="cls-1" d="M72.12,33.82a16.75,16.75,0,0,0,.31-1.72A8.22,8.22,0,0,1,75.83,26a6.63,6.63,0,0,1,1.42-.61c-.07.79-.15,1.31-.16,1.83a9,9,0,0,0,1.69,5.46c1.64,2.34,3.45,4.56,5.14,6.87s3.64,4.85,5.22,7.42a16,16,0,0,1,2.26,9.06c-.11,3.26-1.84,5.22-5.07,5.21-6.1,0-12.2-.22-18.3-.34-3.54-.07-7.07-.1-10.61-.19-7.78-.19-15.56-.42-23.34-.6-3.27-.08-6.56.1-9.83-.12a28.06,28.06,0,0,1-18.5-8.2c-.26-.27-.49-.56-.94-1.06,1.64,0,3,0,4.44,0,.51,0,1.24-.15,1.44-.49s-.12-1-.4-1.44c-3.09-4.52-6.22-9-7.86-14.33-.92-3-1.62-6-2.38-9A7.17,7.17,0,0,1,0,24l3.75,3.8c1.33,1.35,2.63,2.73,4,4,.35.33,1,.33,1.53.47a4.75,4.75,0,0,0,.22-1.46C7.79,20.86,7.92,11.17,12.8,2c.46-.87.75-2.1,2-2s.85,1.46,1.31,2.19a32.43,32.43,0,0,0,3.48,5c3,3.15,6.27,6.09,9.43,9.11a4.26,4.26,0,0,0,.67.35,10,10,0,0,0,.18-1.48c-.07-5,1-9.61,4.31-13.51A5,5,0,0,1,35.32.94c.17.38.34.77.5,1.16.87,2,1.41,4.21,2.68,5.9,2.2,2.9,4.89,5.43,7.3,8.18,1.87,2.16,3.62,4.43,5.44,6.63a4.71,4.71,0,0,0,.84.6,3.68,3.68,0,0,0,.41-1.08c.08-1.18,0-2.37.1-3.53A12.46,12.46,0,0,1,55.86,12a2,2,0,0,1,1.55-.53c.32,0,.72.68.81,1.12a18.33,18.33,0,0,0,4.12,8A69.41,69.41,0,0,1,71.11,33a5.73,5.73,0,0,0,.64.85Z"/><path class="cls-1" d="M102.61,211.53a4.6,4.6,0,1,1-9.2.2A4.54,4.54,0,0,1,98,207,4.45,4.45,0,0,1,102.61,211.53Zm-2.13,2.82a3.78,3.78,0,0,0,.25-5.4,3.88,3.88,0,0,0-5.26-.14,3.94,3.94,0,0,0-.23,5.37,3.68,3.68,0,0,0,5.27.14Z"/><path class="cls-1" d="M95.41,208.43h2.48c1.46,0,2.66.51,2.66,2.15s-1.2,2.27-2.66,2.27H97v2.48H95.41Zm2.35,3.18c.82,0,1.26-.35,1.26-1s-.44-.91-1.26-.91H97v1.94Zm-.15.83,1.07-1,2.2,3.89H99.14Z"/></g></g></svg>