<svg xmlns="http://www.w3.org/2000/svg" xmlns:xlink="http://www.w3.org/1999/xlink" viewBox="0 0 903.9 911.77"><defs><style>.cls-1{fill:none;}.cls-2{clip-path:url(#clip-path);}.cls-3{fill:#ffab00;}.cls-4{fill:#fcffff;}.cls-5{clip-path:url(#clip-path-2);}.cls-6{fill:#53284f;}</style><clipPath id="clip-path" transform="translate(-61.73 -15.5)"><rect class="cls-1" width="774.58" height="764.16"/></clipPath><clipPath id="clip-path-2" transform="translate(-61.73 -15.5)"><path class="cls-1" d="M411,351l18.64,3.22,4.14-1.61,15.42,1.61H464l14.21-1.61h9.32l7.59,3.69v1.38L493,360.54s-1,2.13.58,3.4,3.79.69,4.48.51a39.64,39.64,0,0,0,3.8-1.84l-2.07,2.82,1.09,10.41,9.84,5.64,1.26.69L515.1,388l-5.87,13.46-5.18,8.2L494,419.27l-5.44,3.8-7.33,4.05-6.13,2.33-5.58,1.5-8.74,1.61H450.18l-9.8-1.38L426.46,426,411,415.3l-9-9.89-6.67-13.63-2.19-8.8-1-7.71v-5.06l2.07-14.61,2.53-6.1,6.1,3.56,4.71-6.44h2.3l9.44,4.26Z"/></clipPath></defs><g id="Capa_2" data-name="Capa 2"><g id="Capa_1-2" data-name="Capa 1"><g class="cls-2"><path class="cls-3" d="M902.15,822l-59.09-2c63.44-80,108.19-161.6,122.57-264.56l-90.45,83.37-6.72-3.06c20.47-113.52,29.68-225.51-41.73-338.82C803.66,383.64,728.12,409.64,686.94,465a269.43,269.43,0,0,0-18.29-89.36,263.23,263.23,0,0,0-41.38-70.85C603.1,410.39,509.86,451.53,458.16,529.33c-1.06-48.18-6.44-92.05-42.84-119.13a253.66,253.66,0,0,1-40.55,69.1,243.33,243.33,0,0,1-23.48,24.6c-20.41,19-49.89,53.8-89.06,123.22-1-9.93-4.89-27.22-15-46.55-6.95-13.3-18.2-24.19-31.75-35.4-3.33,73.77-57,112.89-94.62,161.85-31.71,41.22-59.72,83.26-59.12,139.14.41,39.29,17,59.22,54.38,59.69,200.58,2.49,401.17,6,601.77,6.21,11.52,0,38.71.41,72-10.43C842.62,884.46,879.25,849.46,902.15,822Z" transform="translate(-61.73 -15.5)"/><image width="1080" height="1920" transform="translate(132.38) scale(0.47)" xlink:href="../../T%C3%8DO%20KIKY.png"/><path class="cls-4" d="M411.41,350.9,430,354.12l4.14-1.61,15.42,1.61h14.73l14.2-1.61h9.32l7.59,3.68v1.38l-2.07,2.88s-1,2.13.58,3.39,3.8.69,4.49.52a39.28,39.28,0,0,0,3.79-1.84l-2.07,2.82,1.09,10.41,9.84,5.64,1.27.69,3.1,5.78-5.87,13.46-5.17,8.19-10.1,9.67L488.89,423,481.55,427l-6.12,2.33-5.58,1.49-8.75,1.62H450.54l-9.8-1.39-13.92-5.17-15.41-10.7-9-9.89-6.67-13.64-2.18-8.8-1-7.71v-5.06l2.07-14.61,2.53-6.09,6.1,3.56,4.72-6.44h2.3l9.43,4.26Z" transform="translate(-61.73 -15.5)"/><g class="cls-5"><path class="cls-6" d="M431.47,360.57,434,363c-1.88,1.58-3.64,3.14-5.5,4.58a2.56,2.56,0,0,0-1.1,2.63c.86,6.85,1.66,13.7,2.49,20.56.61,5,1.25,10.07,1.82,15.12a1.24,1.24,0,0,1-.59,1,28.11,28.11,0,0,1-3.2.41c-1.49-11.8-3-23.47-4.49-35.48-1.46,1.23-2.76,2.31-4,3.44-.19.17-.14.64-.13,1q.78,14.17,1.57,28.36c0,.52,0,1.06,0,1.71l-11.38.71V359.77h8.87L419,370Z" transform="translate(-61.73 -15.5)"/><path class="cls-6" d="M472.85,406.84l-3.9.49c-1.5-11.81-3-23.51-4.5-35.49-1.4,1.17-2.6,2.1-3.71,3.14a1.9,1.9,0,0,0-.42,1.31q.63,12.18,1.31,24.36c.1,1.82.18,3.64.28,5.64l-11.34.72V359.73h8.78c.2,3.28.4,6.61.62,10.24l12.45-9.38L475,363c-2,1.67-3.88,3.31-5.85,4.84a2,2,0,0,0-.8,2.16q1.77,14.29,3.47,28.61C472.19,401.29,472.51,404,472.85,406.84Z" transform="translate(-61.73 -15.5)"/><path class="cls-6" d="M482.13,372h7.51V364.4c0-4.19,0-4.19,4.14-4.19h6.84c-.43,15.19-.85,30.19-1.27,45.3-1.05.08-2,.18-2.9.22q-6.7.28-13.43.53c-.28,0-.72,0-.83-.15-1.09-1.58-2.87-2.75-2.8-5s0-4.43,0-6.78h3.38c0,1.39,0,2.76,0,4.12,0,2.53,1.25,3.76,3.7,3.71,1,0,1.94,0,3.08,0V400c0-6.81,0-13.62.1-20.42,0-1.26-.39-1.71-1.57-1.92-3.11-.54-6.19-1.18-9.27-1.85-.4-.09-1-.6-1-.92-.06-5,0-10,0-15.29a29,29,0,0,1,3.45.06c.3,0,.74.79.75,1.22.11,3.15.12,6.31.17,9.46Z" transform="translate(-61.73 -15.5)"/><path class="cls-6" d="M439.18,363.69l-4-.3c-.1-1.13-.24-2.2-.24-3.27,0-.28.44-.82.68-.82,3.83-.05,7.66,0,11.58,0v4.51H443.3v37.77h3.61v4.76h-12.8v-4.7h4.39C438.72,388.91,439,376.41,439.18,363.69Z" transform="translate(-61.73 -15.5)"/></g></g></g></g></svg>